<svg viewBox="0 0 256 256" xml:space="preserve" xmlns="http://www.w3.org/2000/svg"><path d="M128 52.688c3.534 0 6 2.865 6 6.4v122.034l45.956-47.141c2.463-2.538 6.616-2.597 9.149-.138 1.295 1.256 1.995 2.925 1.995 4.594 0 1.606-.576 3.216-1.782 4.456l-56.737 58.466a6.387 6.387 0 0 1-9.178 0L66.66 142.894c-2.459-2.528-2.401-6.584.139-9.05 2.534-2.459 6.789-2.4 9.251.138l45.95 47.14V59.088c0-3.535 2.466-6.4 6-6.4zM128 0C57.422 0 0 57.422 0 128s57.422 128 128 128 128-57.422 128-128S198.578 0 128 0zm0 12.8c63.521 0 115.2 51.679 115.2 115.2S191.521 243.2 128 243.2 12.8 191.521 12.8 128 64.479 12.8 128 12.8z" fill="#ffffff" class="fill-000000"></path></svg>