<?xml version="1.0" encoding="utf-8"?>
<!-- Generator: Adobe Illustrator 16.0.0, SVG Export Plug-In . SVG Version: 6.00 Build 0)  -->
<svg version="1.1" id="bg" xmlns="http://www.w3.org/2000/svg" xmlns:xlink="http://www.w3.org/1999/xlink" x="0px" y="0px"
	 width="4500px" height="4500px" viewBox="0 0 4500 4500" enable-background="new 0 0 4500 4500" xml:space="preserve">
<rect fill="#172E49" width="4500" height="4500"/>
<path fill="#071626" d="M3674.211,2241.511c0-143.018-115.901-258.92-258.806-258.92c-10.412,0-20.594,0.801-30.663,1.945
	c-44.049-183.521-209.15-320.131-406.286-320.131c-105.091,0-201.071,38.829-274.47,102.885
	c-136.374-138.575-326.066-224.509-535.929-224.509c-354.8,0-651.935,245.763-731.339,576.307
	c-17.963-2.174-36.384-3.547-55.033-3.547c-257.318,0-465.896,208.578-465.896,465.896c0,257.205,208.578,465.782,465.896,465.782
	h1572.857c257.319,0,465.897-208.577,465.897-465.782c0-27.671-2.418-54.775-7.044-81.12h2.009
	C3558.31,2500.316,3674.211,2384.415,3674.211,2241.511z"/>
<path fill="#FFFFFF" d="M2909.543,2070.541c-18.649,0-36.954,1.373-55.147,3.547c-79.176-330.543-376.423-576.307-731.338-576.307
	c-354.8,0-651.935,245.763-731.339,576.307c-17.963-2.174-36.384-3.547-55.033-3.547c-257.318,0-465.896,208.578-465.896,465.896
	c0,257.205,208.578,465.782,465.896,465.782h1572.857c257.319,0,465.897-208.577,465.897-465.782
	C3375.44,2279.119,3166.862,2070.541,2909.543,2070.541z"/>
<path fill="#6FD8CE" d="M3370.405,1937.591c-10.412,0-20.594,0.801-30.663,1.945c-44.049-183.521-209.15-320.131-406.286-320.131
	c-197.135,0-362.236,136.61-406.285,320.131c-10.069-1.144-20.366-1.945-30.664-1.945c-142.903,0-258.806,115.902-258.806,258.92
	c0,142.904,115.902,258.805,258.806,258.805h873.898c142.904,0,258.806-115.901,258.806-258.805
	C3629.211,2053.494,3513.31,1937.591,3370.405,1937.591z"/>
<g>
	<path fill="#D1AA0B" d="M3185.932,2008.802c0-13.599-11.11-24.708-24.711-24.708h-434.729c-13.599,0-24.709,11.109-24.709,24.708
		v289.456c0,13.598,11.11,24.742,24.709,24.742h434.729c13.601,0,24.711-11.145,24.711-24.742V2008.802z"/>
	<rect x="2774.387" y="1984.094" fill="#FDD835" width="338.943" height="338.906"/>
	<g>
		<path fill="#3F4A5A" d="M2989.215,2125.421c0,25.043-20.334,45.34-45.339,45.34c-25.042,0-45.342-20.297-45.342-45.34
			c0-25.042,20.3-45.34,45.342-45.34C2968.881,2080.081,2989.215,2100.379,2989.215,2125.421z"/>
		<rect x="2924.936" y="2161.939" fill="#3F4A5A" width="37.845" height="93.802"/>
	</g>
	<path fill="#3F4A5A" d="M3113.33,1984.094h-62.952v-62.886c0-28.458-11.08-55.191-31.181-75.357
		c-20.133-20.101-46.898-31.179-75.321-31.179c-28.46,0-55.228,11.078-75.325,31.179c-20.134,20.166-31.212,46.899-31.212,75.357
		v62.886h-62.952v-62.886c0-45.307,17.646-87.829,49.652-119.835c32.008-32.007,74.561-49.652,119.837-49.652
		c45.24,0,87.794,17.645,119.8,49.652c32.008,32.007,49.654,74.528,49.654,119.835V1984.094z"/>
</g>
</svg>
