<svg width="43" height="27" viewBox="0 0 43 27" fill="none" xmlns="http://www.w3.org/2000/svg">
<path d="M34.6545 11.3703C34.6545 11.2602 34.6729 11.15 34.6729 11.0398C34.6729 5.1373 29.826 0.28125 23.951 0.28125C19.7191 0.28125 16.0748 2.84238 14.3674 6.43164C13.6238 6.05527 12.7977 5.84414 11.9072 5.84414C9.19004 5.84414 6.94102 8.01973 6.50039 10.6176C3.26914 11.7375 0.9375 14.675 0.9375 18.3102C0.9375 22.8816 4.61855 26.7188 9.1625 26.7188H34.5352C38.666 26.7188 42.0625 23.1479 42.0625 18.9803C42.0625 14.7943 38.8129 11.3795 34.6545 11.3703Z" fill="url(#paint0_linear_4_6)"/>
<defs>
<linearGradient id="paint0_linear_4_6" x1="5.5" y1="4.5" x2="26.5" y2="27" gradientUnits="userSpaceOnUse">
<stop stop-color="#E8A3FF"/>
<stop offset="1" stop-color="#E765C4"/>
</linearGradient>
</defs>
</svg>
